HIERARCHY
ROOT newVegas:Hips
{
	OFFSET 0.000000 96.479958 0.000000
	CHANNELS 6 Xposition Yposition Zposition Xrotation Yrotation Zrotation
	JOINT newVegas:Pelvis
	{
		OFFSET 0.000000 0.000000 0.000000
		CHANNELS 3 Xrotation Yrotation Zrotation
		JOINT newVegas:LeftUpLeg
		{
			OFFSET 18.735201 -5.666702 -4.541200
			CHANNELS 3 Xrotation Yrotation Zrotation
			JOINT newVegas:LeftLeg
			{
				OFFSET -0.021200 -31.938179 0.493100
				CHANNELS 3 Xrotation Yrotation Zrotation
				JOINT newVegas:LeftFoot
				{
					OFFSET 0.021200 -31.938179 -4.336299
					CHANNELS 3 Xrotation Yrotation Zrotation
					JOINT newVegas:LeftToeBase
					{
						OFFSET 0.943001 -26.722000 15.023500
						CHANNELS 3 Xrotation Yrotation Zrotation
						End Site
						{
							OFFSET 0.000000 30.670183 0.000000
						}
					}
				}
				JOINT newVegas:Left_PantLeg
				{
					OFFSET 0.663870 -9.044666 -1.108900
					CHANNELS 3 Xrotation Yrotation Zrotation
					End Site
					{
						OFFSET 1.415995 20.635357 0.000000
					}
				}
			}
		}
		JOINT newVegas:RightUpLeg
		{
			OFFSET -18.735201 -5.666702 -4.541200
			CHANNELS 3 Xrotation Yrotation Zrotation
			JOINT newVegas:RightLeg
			{
				OFFSET 0.018946 -31.938133 0.493100
				CHANNELS 3 Xrotation Yrotation Zrotation
				JOINT newVegas:RightFoot
				{
					OFFSET -0.018946 -31.938126 -4.336299
					CHANNELS 3 Xrotation Yrotation Zrotation
					JOINT newVegas:RightToeBase
					{
						OFFSET -0.943001 -26.722004 15.023500
						CHANNELS 3 Xrotation Yrotation Zrotation
						End Site
						{
							OFFSET 0.000000 30.670187 0.000000
						}
					}
				}
				JOINT newVegas:Right_PantLeg
				{
					OFFSET -0.661674 -9.044716 -1.108900
					CHANNELS 3 Xrotation Yrotation Zrotation
					End Site
					{
						OFFSET -1.415958 20.635269 0.000000
					}
				}
			}
		}
	}
	JOINT newVegas:Spine
	{
		OFFSET 0.000000 10.199997 -0.299500
		CHANNELS 3 Xrotation Yrotation Zrotation
		JOINT newVegas:Spine1
		{
			OFFSET 0.000000 11.900002 -1.516600
			CHANNELS 3 Xrotation Yrotation Zrotation
			JOINT newVegas:Spine2
			{
				OFFSET 0.000000 13.600006 -2.842500
				CHANNELS 3 Xrotation Yrotation Zrotation
				JOINT newVegas:Neck
				{
					OFFSET 0.000000 9.624100 -2.890100
					CHANNELS 3 Xrotation Yrotation Zrotation
					JOINT newVegas:Head
					{
						OFFSET 0.000000 14.068802 -1.351900
						CHANNELS 3 Xrotation Yrotation Zrotation
						JOINT newVegas:Hair_Back
						{
							OFFSET 0.000000 3.231903 -17.524799
							CHANNELS 3 Xrotation Yrotation Zrotation
							End Site
							{
								OFFSET 0.000000 19.849884 0.000000
							}
						}
						JOINT newVegas:Hair_Front
						{
							OFFSET 0.000000 31.260406 4.573800
							CHANNELS 3 Xrotation Yrotation Zrotation
							JOINT newVegas:Hair_Front1
							{
								OFFSET 0.000000 2.284103 11.993300
								CHANNELS 3 Xrotation Yrotation Zrotation
								JOINT newVegas:Hair_Front2
								{
									OFFSET 0.000000 2.284103 11.993300
									CHANNELS 3 Xrotation Yrotation Zrotation
									End Site
									{
										OFFSET 0.000000 12.208862 0.000000
									}
								}
							}
						}
						JOINT newVegas:Jowel
						{
							OFFSET 0.000000 -7.458206 6.864100
							CHANNELS 3 Xrotation Yrotation Zrotation
							End Site
							{
								OFFSET 0.000000 19.849884 0.000000
							}
						}
					}
				}
				JOINT newVegas:LeftShoulder
				{
					OFFSET 15.263000 10.923401 -0.547700
					CHANNELS 3 Xrotation Yrotation Zrotation
					JOINT newVegas:LeftArm
					{
						OFFSET 25.438599 -2.830597 -13.032500
						CHANNELS 3 Xrotation Yrotation Zrotation
						JOINT newVegas:LeftForeArm
						{
							OFFSET 29.960503 0.000000 0.000000
							CHANNELS 3 Xrotation Yrotation Zrotation
							JOINT newVegas:LeftHand
							{
								OFFSET 27.849251 0.000000 0.000000
								CHANNELS 3 Xrotation Yrotation Zrotation
								JOINT newVegas:LeftHandThumb1
								{
									OFFSET 4.487587 -3.305161 6.305391
									CHANNELS 3 Xrotation Yrotation Zrotation
									JOINT newVegas:LeftHandThumb2
									{
										OFFSET 5.480453 -3.164139 3.164143
										CHANNELS 3 Xrotation Yrotation Zrotation
										JOINT newVegas:LeftHandThumb3
										{
											OFFSET 5.159721 -2.978973 2.978967
											CHANNELS 3 Xrotation Yrotation Zrotation
											End Site
											{
												OFFSET 2.494507 5.926697 1.738678
											}
										}
									}
								}
								JOINT newVegas:LeftHandIndex1
								{
									OFFSET 18.578728 -0.527832 5.208049
									CHANNELS 3 Xrotation Yrotation Zrotation
									JOINT newVegas:LeftHandIndex2
									{
										OFFSET 3.192009 0.000000 0.000000
										CHANNELS 3 Xrotation Yrotation Zrotation
										JOINT newVegas:LeftHandIndex3
										{
											OFFSET 3.835129 0.000000 0.000000
											CHANNELS 3 Xrotation Yrotation Zrotation
											End Site
											{
												OFFSET -0.034599 3.816971 0.371180
											}
										}
									}
								}
								JOINT newVegas:LeftHandMiddle1
								{
									OFFSET 18.476105 0.000000 0.000000
									CHANNELS 3 Xrotation Yrotation Zrotation
									JOINT newVegas:LeftHandMiddle2
									{
										OFFSET 3.324875 0.000000 0.000000
										CHANNELS 3 Xrotation Yrotation Zrotation
										JOINT newVegas:LeftHandMiddle3
										{
											OFFSET 4.596550 0.000000 0.000000
											CHANNELS 3 Xrotation Yrotation Zrotation
											End Site
											{
												OFFSET 0.057701 4.578827 0.399218
											}
										}
									}
								}
								JOINT newVegas:LeftHandRing1
								{
									OFFSET 17.732719 0.121887 -4.201567
									CHANNELS 3 Xrotation Yrotation Zrotation
									JOINT newVegas:LeftHandRing2
									{
										OFFSET 2.733170 0.000000 0.000000
										CHANNELS 3 Xrotation Yrotation Zrotation
										JOINT newVegas:LeftHandRing3
										{
											OFFSET 3.178268 0.000000 0.000000
											CHANNELS 3 Xrotation Yrotation Zrotation
											End Site
											{
												OFFSET 0.119102 3.170624 0.185394
											}
										}
									}
								}
								JOINT newVegas:LeftHandPinky1
								{
									OFFSET 15.989624 -0.606689 -7.535461
									CHANNELS 3 Xrotation Yrotation Zrotation
									JOINT newVegas:LeftHandPinky2
									{
										OFFSET 2.538986 0.000000 0.000000
										CHANNELS 3 Xrotation Yrotation Zrotation
										JOINT newVegas:LeftHandPinky3
										{
											OFFSET 2.593102 0.000000 0.000000
											CHANNELS 3 Xrotation Yrotation Zrotation
											End Site
											{
												OFFSET -0.150902 2.584198 0.152708
											}
										}
									}
								}
							}
							JOINT newVegas:Left_Sleeve
							{
								OFFSET 0.267448 -0.649796 0.577675
								CHANNELS 3 Xrotation Yrotation Zrotation
								End Site
								{
									OFFSET 0.000000 15.991241 0.000000
								}
							}
							JOINT newVegas:Left_CapeC
							{
								OFFSET 15.715958 -8.608795 -6.935905
								CHANNELS 3 Xrotation Yrotation Zrotation
								JOINT newVegas:Left_CapeC1
								{
									OFFSET 0.000000 -8.688499 0.000000
									CHANNELS 3 Xrotation Yrotation Zrotation
									End Site
									{
										OFFSET 0.000000 8.688499 0.000000
									}
								}
							}
						}
						JOINT newVegas:Left_CapeB
						{
							OFFSET 26.118385 -8.608795 -7.079235
							CHANNELS 3 Xrotation Yrotation Zrotation
							JOINT newVegas:Left_CapeB1
							{
								OFFSET 0.000000 -8.688499 0.000000
								CHANNELS 3 Xrotation Yrotation Zrotation
								End Site
								{
									OFFSET 0.000000 8.688499 0.000000
								}
							}
						}
						JOINT newVegas:Left_CapeA
						{
							OFFSET 5.115639 -8.608795 -10.395809
							CHANNELS 3 Xrotation Yrotation Zrotation
							JOINT newVegas:Left_CapeA1
							{
								OFFSET 0.000000 -8.688499 0.000000
								CHANNELS 3 Xrotation Yrotation Zrotation
								End Site
								{
									OFFSET 0.000000 8.688499 0.000000
								}
							}
						}
					}
				}
				JOINT newVegas:RightShoulder
				{
					OFFSET -15.263000 10.923401 -0.547700
					CHANNELS 3 Xrotation Yrotation Zrotation
					JOINT newVegas:RightArm
					{
						OFFSET -25.438599 -2.830597 -13.032500
						CHANNELS 3 Xrotation Yrotation Zrotation
						JOINT newVegas:RightForeArm
						{
							OFFSET -29.960503 0.000000 0.000000
							CHANNELS 3 Xrotation Yrotation Zrotation
							JOINT newVegas:RightHand
							{
								OFFSET -27.849251 0.000000 0.000000
								CHANNELS 3 Xrotation Yrotation Zrotation
								JOINT newVegas:RightHandThumb1
								{
									OFFSET -4.487587 -3.305161 6.305391
									CHANNELS 3 Xrotation Yrotation Zrotation
									JOINT newVegas:RightHandThumb2
									{
										OFFSET -5.480453 -3.164139 3.164143
										CHANNELS 3 Xrotation Yrotation Zrotation
										JOINT newVegas:RightHandThumb3
										{
											OFFSET -5.159721 -2.978973 2.978967
											CHANNELS 3 Xrotation Yrotation Zrotation
											End Site
											{
												OFFSET -2.494507 5.926697 1.738678
											}
										}
									}
								}
								JOINT newVegas:RightHandIndex1
								{
									OFFSET -18.578728 -0.527832 5.208049
									CHANNELS 3 Xrotation Yrotation Zrotation
									JOINT newVegas:RightHandIndex2
									{
										OFFSET -3.192009 0.000000 0.000000
										CHANNELS 3 Xrotation Yrotation Zrotation
										JOINT newVegas:RightHandIndex3
										{
											OFFSET -3.835129 0.000000 0.000000
											CHANNELS 3 Xrotation Yrotation Zrotation
											End Site
											{
												OFFSET 0.034599 3.816971 0.371180
											}
										}
									}
								}
								JOINT newVegas:RightHandMiddle1
								{
									OFFSET -18.476105 0.000000 0.000000
									CHANNELS 3 Xrotation Yrotation Zrotation
									JOINT newVegas:RightHandMiddle2
									{
										OFFSET -3.324875 0.000000 0.000000
										CHANNELS 3 Xrotation Yrotation Zrotation
										JOINT newVegas:RightHandMiddle3
										{
											OFFSET -4.596550 0.000000 0.000000
											CHANNELS 3 Xrotation Yrotation Zrotation
											End Site
											{
												OFFSET -0.057701 4.578827 0.399218
											}
										}
									}
								}
								JOINT newVegas:RightHandRing1
								{
									OFFSET -17.732719 0.121887 -4.201567
									CHANNELS 3 Xrotation Yrotation Zrotation
									JOINT newVegas:RightHandRing2
									{
										OFFSET -2.733170 0.000000 0.000000
										CHANNELS 3 Xrotation Yrotation Zrotation
										JOINT newVegas:RightHandRing3
										{
											OFFSET -3.178268 0.000000 0.000000
											CHANNELS 3 Xrotation Yrotation Zrotation
											End Site
											{
												OFFSET -0.119102 3.170624 0.185394
											}
										}
									}
								}
								JOINT newVegas:RightHandPinky1
								{
									OFFSET -15.989624 -0.606689 -7.535461
									CHANNELS 3 Xrotation Yrotation Zrotation
									JOINT newVegas:RightHandPinky2
									{
										OFFSET -2.538986 0.000000 0.000000
										CHANNELS 3 Xrotation Yrotation Zrotation
										JOINT newVegas:RightHandPinky3
										{
											OFFSET -2.593102 0.000000 0.000000
											CHANNELS 3 Xrotation Yrotation Zrotation
											End Site
											{
												OFFSET 0.150902 2.584198 0.152708
											}
										}
									}
								}
							}
							JOINT newVegas:Right_CapeC
							{
								OFFSET -15.715958 -8.608795 -6.935905
								CHANNELS 3 Xrotation Yrotation Zrotation
								JOINT newVegas:Right_CapeC1
								{
									OFFSET 0.000000 -8.688499 0.000000
									CHANNELS 3 Xrotation Yrotation Zrotation
									End Site
									{
										OFFSET 0.000000 8.688499 0.000000
									}
								}
							}
							JOINT newVegas:Right_Sleeve
							{
								OFFSET -0.267448 -0.649994 0.577675
								CHANNELS 3 Xrotation Yrotation Zrotation
								End Site
								{
									OFFSET 0.000000 15.991302 0.000000
								}
							}
						}
						JOINT newVegas:Right_CapeA
						{
							OFFSET -5.115540 -8.608795 -10.395824
							CHANNELS 3 Xrotation Yrotation Zrotation
							JOINT newVegas:Right_CapeA1
							{
								OFFSET 0.000000 -8.688499 0.000000
								CHANNELS 3 Xrotation Yrotation Zrotation
								End Site
								{
									OFFSET 0.000000 8.688499 0.000000
								}
							}
						}
						JOINT newVegas:Right_CapeB
						{
							OFFSET -26.118187 -8.608795 -7.079266
							CHANNELS 3 Xrotation Yrotation Zrotation
							JOINT newVegas:Right_CapeB1
							{
								OFFSET 0.000000 -8.688499 0.000000
								CHANNELS 3 Xrotation Yrotation Zrotation
								End Site
								{
									OFFSET 0.000000 8.688499 0.000000
								}
							}
						}
					}
				}
				JOINT newVegas:Left_Collar
				{
					OFFSET 18.625099 8.655502 8.828100
					CHANNELS 3 Xrotation Yrotation Zrotation
					JOINT newVegas:Left_Collar1
					{
						OFFSET 14.783401 10.540405 -1.259500
						CHANNELS 3 Xrotation Yrotation Zrotation
						End Site
						{
							OFFSET 0.000000 18.199875 0.000000
						}
					}
				}
				JOINT newVegas:Collar_Back
				{
					OFFSET 0.000000 15.630707 -20.132601
					CHANNELS 3 Xrotation Yrotation Zrotation
					End Site
					{
						OFFSET 0.000000 22.523010 0.000000
					}
				}
				JOINT newVegas:Left_Peck
				{
					OFFSET 17.239599 -5.132599 25.482599
					CHANNELS 3 Xrotation Yrotation Zrotation
					End Site
					{
						OFFSET 0.000000 22.523010 0.000000
					}
				}
				JOINT newVegas:Right_Peck
				{
					OFFSET -17.239599 -5.132202 25.482599
					CHANNELS 3 Xrotation Yrotation Zrotation
					End Site
					{
						OFFSET 0.000000 22.523010 0.000000
					}
				}
				JOINT newVegas:Right_Collar
				{
					OFFSET -18.625099 8.655792 8.828100
					CHANNELS 3 Xrotation Yrotation Zrotation
					JOINT newVegas:Right_Collar1
					{
						OFFSET -14.783401 10.539993 -1.259500
						CHANNELS 3 Xrotation Yrotation Zrotation
						End Site
						{
							OFFSET 0.000000 18.199631 0.000000
						}
					}
				}
			}
		}
		JOINT newVegas:Belly
		{
			OFFSET 0.000000 -6.540398 9.014299
			CHANNELS 3 Xrotation Yrotation Zrotation
			End Site
			{
				OFFSET 0.000000 11.566666 0.000000
			}
		}
	}
	JOINT newVegas:ElvisFacialAnim_Joint
	{
		OFFSET 1.000000 -95.330101 -8.825800
		CHANNELS 3 Xrotation Yrotation Zrotation
		End Site
		{
			OFFSET 0.000000 35.315800 0.000000
		}
	}
}
MOTION
Frames: 4
Frame Time: 0.033333
-1.653543 91.978630 3.066465 2.392541 -26.049950 0.574454 0.000000 -0.000001 -0.000000 -26.115730 0.355430 7.588994 34.290166 -5.235298 -0.131269 -10.635681 0.675160 -3.886748 -0.000000 -0.000001 -0.000000 -0.000001 0.000000 0.000000 8.096384 -13.335073 -10.304355 16.017466 -9.965262 -0.352369 -12.389284 -2.408244 13.162177 0.000001 0.000000 0.000000 0.000002 -0.000001 -0.000002 3.488621 3.930853 -1.184654 1.709399 1.470268 -0.399762 1.748571 1.419196 -0.389326 -0.821580 0.413221 4.200521 -0.821580 0.413217 4.200522 -0.000000 -0.000001 -0.000000 -0.821508 0.413208 4.200521 -0.821717 0.413252 4.200510 -0.000000 -0.000001 -0.000002 -0.000000 -0.000001 0.000000 2.561447 2.145857 15.297303 -24.581965 -43.966747 -15.351241 -0.000000 -112.365163 0.000000 1.062592 -34.075667 29.868667 -1.688180 -5.345856 -1.749923 9.175012 37.019830 3.165295 0.000001 -0.000002 -0.000003 5.853232 8.198726 -89.345664 6.123446 5.844743 -92.672813 0.000000 -0.000000 0.000003 5.415329 8.177467 -85.047658 7.042830 5.728797 -101.772441 -0.000001 -0.000000 -0.000003 6.419896 8.177863 -94.905683 6.123449 5.844727 -92.672799 0.000001 0.000001 0.000000 6.011792 8.198396 -90.899518 6.123426 5.844726 -92.672826 0.000001 -0.000003 -0.000001 0.000000 -0.000000 0.000000 0.000000 -0.000000 0.000000 0.000000 -0.000001 0.000000 0.000000 0.000001 -0.000000 0.000000 0.000000 -0.000000 0.000000 0.000001 -0.000000 0.000000 0.000002 -0.000000 0.838664 6.962080 1.704639 -36.379097 28.424910 24.183437 -0.000068 103.946791 0.000062 -67.322272 -4.611564 34.301077 29.860064 10.904019 19.100453 3.489948 -32.554406 -30.342921 0.000000 0.000002 -0.000000 0.661326 1.607754 19.726693 2.340463 -4.041166 60.141352 -0.000000 -0.000001 -0.000001 2.752259 -6.509871 62.342367 6.205412 -4.392800 109.437061 0.000001 0.000002 -0.000002 4.578777 -7.022396 77.077339 5.352561 -4.605057 98.596724 -0.000001 -0.000003 0.000002 7.317595 -14.667406 76.257812 2.220201 -3.969837 58.419639 0.000001 0.000001 0.000001 -0.000000 0.000001 -0.000001 -0.000000 0.000001 -0.000001 -0.000000 0.000001 -0.000001 -0.000004 -0.000002 -0.000000 -0.000004 -0.000001 -0.000001 -0.000004 -0.000002 -0.000000 -0.000004 -0.000001 -0.000001 -0.000000 0.000001 -0.000000 -0.000000 0.000001 -0.000000 -0.000000 0.000001 -0.000000 -0.000000 0.000001 -0.000000 -0.000000 0.000001 -0.000000 -0.000000 0.000001 -0.000000 -0.000000 0.000001 -0.000000 -0.000001 0.000001 -0.000000 0.000000 -0.000001 -0.000000 
-1.643298 91.978165 3.056076 2.383371 -26.044181 0.569141 0.000000 0.000002 -0.000000 -26.124131 0.355088 7.586984 34.295476 -5.235066 -0.131400 -10.624384 0.673682 -3.884080 0.000000 0.000000 -0.000000 0.000000 0.000000 -0.000000 8.080225 -13.329170 -10.311458 16.048202 -9.960907 -0.352036 -12.393931 -2.413547 13.170157 0.000001 0.000003 -0.000001 0.000002 -0.000002 0.000000 3.486944 3.925262 -1.177584 1.709805 1.467332 -0.399139 1.748833 1.416172 -0.388731 -0.810068 0.416594 4.185996 -0.810066 0.416595 4.185995 -0.000000 -0.000001 -0.000001 -0.809997 0.416588 4.185994 -0.810070 0.416603 4.185992 -0.000000 -0.000000 -0.000001 -0.000000 -0.000001 -0.000000 2.563865 2.141986 15.265852 -24.572531 -43.959326 -15.343129 -0.000000 -112.370293 0.000000 1.066625 -34.090277 29.863435 -1.688182 -5.345854 -1.749926 9.175017 37.019830 3.165301 0.000002 -0.000001 -0.000003 5.853232 8.198725 -89.345664 6.123445 5.844744 -92.672813 0.000001 -0.000006 -0.000001 5.415326 8.177467 -85.047658 7.042836 5.728793 -101.772455 -0.000001 -0.000000 -0.000002 6.419896 8.177864 -94.905690 6.123449 5.844727 -92.672806 -0.000000 -0.000001 -0.000001 6.011793 8.198396 -90.899525 6.123418 5.844724 -92.672826 0.000000 -0.000002 0.000001 0.000000 -0.000000 0.000000 0.000000 -0.000000 0.000000 0.000000 -0.000001 0.000000 -0.000000 -0.000001 -0.000000 -0.000000 -0.000002 -0.000000 -0.000000 -0.000001 -0.000000 -0.000000 -0.000000 -0.000000 0.838484 6.971367 1.706658 -36.410943 28.427444 24.211342 0.000764 103.965383 -0.000750 -67.338132 -4.612215 34.295503 29.860057 10.904023 19.100455 3.489943 -32.554399 -30.342921 0.000000 -0.000001 0.000001 0.661321 1.607754 19.726695 2.340462 -4.041166 60.141352 -0.000002 -0.000000 -0.000001 2.752256 -6.509868 62.342367 6.205417 -4.392801 109.437054 -0.000001 0.000001 0.000000 4.578773 -7.022393 77.077339 5.352561 -4.605057 98.596724 -0.000000 0.000001 -0.000001 7.317595 -14.667409 76.257812 2.220200 -3.969835 58.419639 0.000001 0.000003 -0.000001 0.000001 0.000003 -0.000000 0.000000 0.000001 0.000000 0.000001 0.000002 -0.000000 0.000000 0.000002 0.000001 0.000000 0.000003 -0.000000 0.000000 0.000002 0.000001 0.000000 0.000003 -0.000001 0.000000 0.000001 0.000000 0.000000 0.000001 0.000000 0.000000 0.000001 0.000000 0.000000 0.000001 0.000000 0.000000 0.000001 0.000000 0.000000 0.000001 0.000000 0.000000 0.000001 0.000000 -0.000000 -0.000001 0.000000 0.000000 0.000002 -0.000000 
-1.635159 91.978638 3.048242 2.380502 -26.049349 0.568454 0.000000 -0.000000 -0.000000 -26.127818 0.356649 7.584208 34.294014 -5.229190 -0.132743 -10.616061 0.672405 -3.881388 -0.000000 -0.000001 -0.000000 -0.000000 -0.000001 0.000001 8.054522 -13.320297 -10.322114 16.081224 -9.957875 -0.351017 -12.399991 -2.411478 13.172415 0.000000 -0.000002 0.000001 0.000001 -0.000001 -0.000001 3.498454 3.914535 -1.166492 1.709275 1.461492 -0.398917 1.747954 1.410167 -0.388222 -0.813996 0.419716 4.170158 -0.813994 0.419712 4.170159 -0.000000 -0.000001 -0.000000 -0.813998 0.419710 4.170160 -0.813994 0.419726 4.170154 -0.000000 0.000000 -0.000001 -0.000000 -0.000001 0.000000 2.562285 2.178912 15.225868 -24.577343 -43.950218 -15.350741 -0.000000 -112.413910 0.000000 1.072300 -34.093692 29.848869 -1.688182 -5.345852 -1.749924 9.175013 37.019830 3.165297 0.000000 -0.000000 -0.000006 5.853232 8.198723 -89.345657 6.123444 5.844744 -92.672813 0.000000 -0.000003 -0.000000 5.415329 8.177467 -85.047658 7.042834 5.728798 -101.772448 -0.000001 -0.000004 0.000001 6.419896 8.177862 -94.905683 6.123448 5.844727 -92.672806 0.000000 -0.000001 0.000001 6.011787 8.198395 -90.899518 6.123422 5.844722 -92.672833 0.000002 -0.000002 -0.000001 0.000000 0.000000 -0.000000 0.000000 0.000000 -0.000000 0.000000 -0.000000 -0.000000 -0.000000 0.000001 -0.000000 -0.000000 0.000000 0.000000 -0.000000 0.000001 -0.000000 -0.000000 0.000002 -0.000000 0.838295 6.980894 1.708716 -36.442041 28.429916 24.238274 0.000067 103.984152 -0.000078 -67.353868 -4.613029 34.290138 29.860061 10.904024 19.100452 3.489951 -32.554399 -30.342914 0.000000 -0.000000 -0.000001 0.661323 1.607753 19.726689 2.340460 -4.041165 60.141352 0.000001 0.000002 0.000000 2.752260 -6.509870 62.342360 6.205413 -4.392797 109.437054 -0.000005 -0.000002 0.000005 4.578777 -7.022395 77.077339 5.352557 -4.605055 98.596718 -0.000003 0.000001 -0.000001 7.317597 -14.667409 76.257805 2.220199 -3.969835 58.419646 0.000002 0.000002 -0.000000 0.000003 0.000000 -0.000003 0.000003 -0.000002 -0.000002 0.000003 0.000000 -0.000002 0.000001 0.000002 0.000002 0.000001 0.000003 0.000002 0.000001 0.000002 0.000002 0.000001 0.000003 0.000001 0.000001 -0.000000 0.000000 0.000001 -0.000000 0.000000 0.000001 -0.000000 0.000000 0.000001 -0.000000 0.000000 0.000001 -0.000000 0.000000 0.000001 -0.000000 0.000000 0.000001 -0.000000 0.000000 -0.000000 0.000001 -0.000000 0.000000 -0.000000 -0.000000 
-1.628712 91.978935 3.043045 2.383375 -26.061649 0.571609 -0.000000 0.000000 -0.000000 -26.131131 0.359951 7.580234 34.291484 -5.221283 -0.134496 -10.611815 0.671396 -3.877717 -0.000000 0.000002 -0.000000 -0.000000 -0.000001 -0.000000 8.022488 -13.314913 -10.338053 16.112375 -9.954534 -0.349525 -12.403910 -2.402947 13.179122 -0.000001 -0.000000 0.000001 -0.000000 0.000000 -0.000002 3.518962 3.903565 -1.154662 1.708297 1.455198 -0.399351 1.746515 1.403620 -0.388161 -0.833217 0.422387 4.155424 -0.833213 0.422390 4.155424 -0.000000 -0.000002 0.000001 -0.833212 0.422395 4.155423 -0.833142 0.422375 4.155425 -0.000000 -0.000001 -0.000002 -0.000000 -0.000002 0.000000 2.557717 2.245089 15.182576 -24.598457 -43.945505 -15.371047 -0.000000 -112.484698 0.000000 1.079337 -34.081421 29.828365 -1.688181 -5.345857 -1.749923 9.175009 37.019823 3.165298 0.000001 -0.000002 0.000000 5.853231 8.198721 -89.345664 6.123446 5.844743 -92.672813 -0.000001 -0.000003 -0.000001 5.415326 8.177463 -85.047651 7.042834 5.728796 -101.772448 -0.000001 0.000001 0.000000 6.419897 8.177863 -94.905683 6.123449 5.844726 -92.672799 -0.000000 0.000003 0.000001 6.011794 8.198393 -90.899518 6.123422 5.844723 -92.672826 0.000000 -0.000003 -0.000002 0.000000 0.000000 0.000000 0.000000 0.000000 0.000000 0.000000 -0.000000 0.000000 -0.000000 0.000000 -0.000000 -0.000000 -0.000001 -0.000000 -0.000000 0.000000 -0.000000 -0.000000 0.000001 -0.000000 0.838110 6.990527 1.710704 -36.472309 28.432240 24.264300 -0.000054 104.002744 0.000064 -67.369345 -4.613874 34.284838 29.860067 10.904025 19.100450 3.489955 -32.554406 -30.342917 0.000002 -0.000002 -0.000001 0.661326 1.607754 19.726693 2.340469 -4.041166 60.141352 0.000000 0.000002 -0.000001 2.752258 -6.509870 62.342367 6.205414 -4.392801 109.437054 -0.000000 -0.000001 0.000003 4.578776 -7.022391 77.077346 5.352558 -4.605057 98.596724 0.000004 -0.000001 0.000001 7.317594 -14.667411 76.257812 2.220200 -3.969834 58.419639 0.000001 -0.000000 -0.000001 0.000002 0.000003 -0.000001 0.000002 0.000002 0.000001 0.000002 0.000003 -0.000001 0.000002 0.000001 0.000002 0.000002 0.000002 0.000002 0.000002 0.000001 0.000002 0.000002 0.000002 0.000001 -0.000001 -0.000001 0.000000 -0.000001 -0.000001 0.000000 -0.000001 -0.000001 0.000000 -0.000001 -0.000001 0.000000 -0.000001 -0.000001 0.000000 -0.000001 -0.000001 0.000000 -0.000001 -0.000001 0.000000 -0.000000 0.000000 -0.000000 -0.000000 0.000000 -0.000000 
